<svg width="587" height="269" viewBox="0 0 587 269" fill="none" xmlns="http://www.w3.org/2000/svg">
<path d="M0.0200043 250.77L136.25 5.31L150.59 0L489.8 0.580002L585.94 154.02C586.56 155.09 586.17 155.91 585.81 156.95C584.29 161.36 553.63 188.94 550.98 188.7L473.17 73.91L378.43 264.12L63.5 268.88L361.22 222.73C395.11 162.64 430.9 103.51 464.33 43.17C468.14 36.3 473.4 28.48 474.65 20.99H431.57L425.98 27.5L327.02 209.7L312.17 211.47L412.03 24.07L410.41 20.99H372.62C371.85 20.99 369.12 23.29 368.22 24.15L264.67 218.04C263.19 219.7 254.34 220.66 251.72 220.59C249.67 220.54 247.04 221.48 247.94 218.31L352.21 20.99H315.17C305.13 35.31 296.88 51.38 288.46 66.83C259.56 119.85 232.29 173.85 203.91 227.17C200.63 231.41 190.82 229.7 185.94 228.85L295.63 24.07L294.01 20.99H259.24L252.18 30.56L143.44 234.73C140.16 238.97 130.35 237.26 125.47 236.41L239.7 24.07L238.08 20.99H203.31L80.93 243.31C78.38 242.26 65.23 245.39 66.54 240.98L184.41 20.99H150.4C149.71 20.99 145.76 22.74 145.03 23.56L21.16 250.76H0L0.0200043 250.77Z" fill="white"/>
</svg>
