<?xml version="1.0" encoding="UTF-8"?>
<svg id="uuid-0bb7115c-c3ac-4669-a1be-d8dc39e886f4" data-name="Layer 1" xmlns="http://www.w3.org/2000/svg" xmlns:xlink="http://www.w3.org/1999/xlink" viewBox="0 0 1024 1024">
  <defs>
    <style>
      .uuid-ed685bba-e2de-451a-9c43-988887e61004 {
        fill: none;
      }

      .uuid-51f93358-1e1b-4f2a-9bf3-fc9822c01251 {
        clip-path: url(#uuid-d5e4fc25-1f9d-4bfa-8f30-07b58e1bd347);
      }

      .uuid-0723c687-881f-4ed9-92da-185328d30606 {
        clip-path: url(#uuid-3876aeff-04d7-4bbb-ac2c-875db0200732);
      }
    </style>
    <clipPath id="uuid-d5e4fc25-1f9d-4bfa-8f30-07b58e1bd347">
      <rect class="uuid-ed685bba-e2de-451a-9c43-988887e61004" x="250.76" y="483.06" width="532.8" height="201.9"/>
    </clipPath>
    <clipPath id="uuid-3876aeff-04d7-4bbb-ac2c-875db0200732">
      <rect class="uuid-ed685bba-e2de-451a-9c43-988887e61004" x="276" y="636.38" width="482.32" height="201.9"/>
    </clipPath>
  </defs>
  <path d="M224.03,431.66l136.23-245.46,14.34-5.31,339.21.58,96.14,153.44c.62,1.07.23,1.89-.13,2.93-1.52,4.41-32.18,31.99-34.83,31.75l-77.81-114.79-94.74,190.21-314.93,4.76,297.72-46.15c33.89-60.09,69.68-119.22,103.11-179.56,3.81-6.87,9.07-14.69,10.32-22.18h-43.08l-5.59,6.51-98.96,182.2-14.85,1.77,99.86-187.4-1.62-3.08h-37.79c-.77,0-3.5,2.3-4.4,3.16l-103.55,193.89c-1.48,1.66-10.33,2.62-12.95,2.55-2.05-.05-4.68.89-3.78-2.28l104.27-197.32h-37.04c-10.04,14.32-18.29,30.39-26.71,45.84-28.9,53.02-56.17,107.02-84.55,160.34-3.28,4.24-13.09,2.53-17.97,1.68l109.69-204.78-1.62-3.08h-34.77l-7.06,9.57-108.74,204.17c-3.28,4.24-13.09,2.53-17.97,1.68l114.23-212.34-1.62-3.08h-34.77l-122.38,222.32c-2.55-1.05-15.7,2.08-14.39-2.33l117.87-219.99h-34.01c-.69,0-4.64,1.75-5.37,2.57l-123.87,227.2h-21.16Z"/>
  <g class="uuid-51f93358-1e1b-4f2a-9bf3-fc9822c01251">
    <g>
      <path d="M290.2,644.43v-88.3h-34.82v-28.32h102.13v28.32h-34.98v88.3h-32.32Z"/>
      <path d="M372.49,644.43v-116.62h32.32v116.62h-32.32Z"/>
      <path d="M426.13,644.43v-116.62h30.16l47.97,61.64v-61.64h31.99v116.62h-28.15l-49.98-63.97v63.97h-31.99Z"/>
      <path d="M547.75,644.43l49.48-117.44h31.14l49.63,117.44h-34.65l-8.32-21h-45.15l-8.32,21h-33.81ZM599.38,598.29h26.15l-12.99-32.98-13.16,32.98Z"/>
      <path d="M689.34,644.43v-116.62h32.32v88.3h56.47v28.32h-88.79Z"/>
    </g>
  </g>
  <g class="uuid-0723c687-881f-4ed9-92da-185328d30606">
    <g>
      <path d="M287.5,797.04v-116.62h59.82c7.33,0,13.59.89,18.81,2.68,5.22,1.78,9.56,4.33,13,7.66,2.34,2.44,4.17,5.22,5.5,8.32,1.33,3.11,2,6.66,2,10.66v.33c0,6.67-1.73,12.12-5.17,16.33-3.45,4.22-7.72,7.44-12.83,9.66,7,2.34,12.61,5.7,16.83,10.1,4.22,4.38,6.33,10.52,6.33,18.4v.33c0,9.99-3.89,17.85-11.65,23.57-7.77,5.71-18.6,8.57-32.48,8.57h-60.15ZM354.8,716.76v-.33c0-3.22-1.25-5.7-3.75-7.41-2.49-1.73-6.13-2.59-10.9-2.59h-21.15v20.49h20.31c4.89,0,8.7-.83,11.41-2.49,2.72-1.67,4.08-4.22,4.08-7.66ZM359.47,760.06c0-3.11-1.28-5.63-3.84-7.57-2.55-1.95-6.55-2.93-11.99-2.93h-24.64v21.49h24.99c4.99,0,8.82-.91,11.48-2.73,2.66-1.83,4-4.47,4-7.92v-.33Z"/>
      <path d="M435.44,797.04v-43.64l-44.48-72.98h36.82l23.98,42.48,24.17-42.48h36.14l-44.31,72.47v44.15h-32.32Z"/>
      <path d="M570.72,799.38c-9,0-17.39-1.5-25.17-4.49-7.77-3-14.46-7.14-20.07-12.41-5.61-5.28-10.02-11.64-13.25-19.09-3.22-7.44-4.82-15.55-4.82-24.33v-.33c0-8.43,1.58-16.37,4.73-23.82,3.16-7.44,7.52-13.85,13.07-19.24,5.56-5.38,12.17-9.66,19.84-12.83,7.66-3.16,15.99-4.75,24.99-4.75,10.21,0,19.12,1.47,26.73,4.42s14.46,7.08,20.58,12.41l-19,22.99c-4.1-3.44-8.38-6.14-12.83-8.08-4.44-1.94-9.55-2.91-15.32-2.91-4.22,0-8.13.84-11.74,2.51-3.61,1.66-6.75,3.91-9.41,6.75-2.66,2.83-4.78,6.19-6.33,10.08-1.56,3.88-2.33,8.04-2.33,12.48v.33c0,9.44,2.97,17.22,8.9,23.33,5.95,6.11,13.53,9.17,22.75,9.17,4,0,7.52-.41,10.57-1.24,3.06-.84,5.75-2.04,8.08-3.59v-14.16h-22.82v-23.66h53.47v52.32c-6.11,5.11-13.42,9.41-21.91,12.92-8.5,3.49-18.07,5.24-28.73,5.24Z"/>
      <path d="M698.83,799.38c-9,0-17.39-1.5-25.17-4.49-7.77-3-14.46-7.14-20.07-12.41-5.61-5.28-10.02-11.64-13.25-19.09-3.22-7.44-4.82-15.55-4.82-24.33v-.33c0-8.43,1.58-16.37,4.73-23.82,3.16-7.44,7.52-13.85,13.07-19.24,5.56-5.38,12.17-9.66,19.84-12.83,7.66-3.16,15.99-4.75,24.99-4.75,10.21,0,19.12,1.47,26.73,4.42s14.46,7.08,20.58,12.41l-19,22.99c-4.1-3.44-8.38-6.14-12.83-8.08-4.44-1.94-9.55-2.91-15.32-2.91-4.22,0-8.13.84-11.74,2.51-3.61,1.66-6.75,3.91-9.41,6.75-2.66,2.83-4.78,6.19-6.33,10.08-1.56,3.88-2.33,8.04-2.33,12.48v.33c0,9.44,2.97,17.22,8.9,23.33,5.95,6.11,13.53,9.17,22.75,9.17,4,0,7.52-.41,10.57-1.24,3.06-.84,5.75-2.04,8.08-3.59v-14.16h-22.82v-23.66h53.47v52.32c-6.11,5.11-13.42,9.41-21.91,12.92-8.5,3.49-18.07,5.24-28.73,5.24Z"/>
    </g>
  </g>
</svg>