<svg width="587" height="658" viewBox="0 0 587 658" fill="none" xmlns="http://www.w3.org/2000/svg">
<path d="M0.0200043 250.77L136.25 5.31L150.59 0L489.8 0.580002L585.94 154.02C586.56 155.09 586.17 155.91 585.81 156.95C584.29 161.36 553.63 188.94 550.98 188.7L473.17 73.91L378.43 264.12L63.5 268.88L361.22 222.73C395.11 162.64 430.9 103.51 464.33 43.17C468.14 36.3 473.4 28.48 474.65 20.99H431.57L425.98 27.5L327.02 209.7L312.17 211.47L412.03 24.07L410.41 20.99H372.62C371.85 20.99 369.12 23.29 368.22 24.15L264.67 218.04C263.19 219.7 254.34 220.66 251.72 220.59C249.67 220.54 247.04 221.48 247.94 218.31L352.21 20.99H315.17C305.13 35.31 296.88 51.38 288.46 66.83C259.56 119.85 232.29 173.85 203.91 227.17C200.63 231.41 190.82 229.7 185.94 228.85L295.63 24.07L294.01 20.99H259.24L252.18 30.56L143.44 234.73C140.16 238.97 130.35 237.26 125.47 236.41L239.7 24.07L238.08 20.99H203.31L80.93 243.31C78.38 242.26 65.23 245.39 66.54 240.98L184.41 20.99H150.4C149.71 20.99 145.76 22.74 145.03 23.56L21.16 250.76H0L0.0200043 250.77Z" fill="white"/>
<path d="M66.19 463.54V375.24H31.37V346.92H133.5V375.24H98.52V463.54H66.19Z" fill="white"/>
<path d="M148.48 463.54V346.92H180.8V405.23V463.54H148.48Z" fill="white"/>
<path d="M202.12 463.54V346.92H232.28L280.25 408.56V346.92H312.24V463.54H284.09L234.11 399.57V463.54H202.12Z" fill="white"/>
<path d="M323.74 463.54L373.22 346.1H404.36L453.99 463.54H419.34L411.02 442.54H365.87L357.55 463.54H323.74ZM375.37 417.4H401.52L388.53 384.42L375.37 417.4Z" fill="white"/>
<path d="M465.33 463.54V346.92H497.65V435.22H554.12V463.54H465.33Z" fill="white"/>
<path d="M63.49 616.15V499.53H123.31C130.64 499.53 136.9 500.42 142.12 502.21C147.34 503.99 151.68 506.54 155.12 509.87C157.46 512.31 159.29 515.09 160.62 518.19C161.95 521.3 162.62 524.85 162.62 528.85V529.18C162.62 535.85 160.89 541.3 157.45 545.51C154 549.73 149.73 552.95 144.62 555.17C151.62 557.51 157.23 560.87 161.45 565.27C165.67 569.65 167.78 575.79 167.78 583.67V584C167.78 593.99 163.89 601.85 156.13 607.57C148.36 613.28 137.53 616.14 123.65 616.14H63.5L63.49 616.15ZM130.79 535.54C130.79 532.32 129.54 529.84 127.04 528.13C124.55 526.4 120.91 525.54 116.14 525.54H94.99V546.03H115.3C120.19 546.03 124 545.2 126.71 543.54C129.43 541.87 130.79 539.32 130.79 535.88V535.54ZM135.46 579.17C135.46 576.06 134.18 573.54 131.62 571.6C129.07 569.65 125.07 568.67 119.63 568.67H94.99V590.16H119.98C124.97 590.16 128.8 589.25 131.46 587.43C134.12 585.6 135.46 582.96 135.46 579.51V579.17Z" fill="white"/>
<path d="M211.43 616.15V572.51L166.95 499.53H203.77L227.75 542.01L251.92 499.53H288.06L243.75 572V616.15H211.43Z" fill="white"/>
<path d="M346.71 618.49C337.71 618.49 329.32 616.99 321.54 614C313.77 611 307.08 606.86 301.47 601.59C295.86 596.31 291.45 589.95 288.22 582.5C285 575.06 283.4 566.95 283.4 558.17V557.84C283.4 549.41 284.98 541.47 288.13 534.02C291.29 526.58 295.65 520.17 301.2 514.78C306.76 509.4 313.37 505.12 321.04 501.95C328.7 498.79 337.03 497.2 346.03 497.2C356.24 497.2 365.15 498.67 372.76 501.62C380.37 504.57 387.22 508.7 393.34 514.03L374.34 537.02C370.24 533.58 365.96 530.88 361.51 528.94C357.07 527 351.96 526.03 346.19 526.03C341.97 526.03 338.06 526.87 334.45 528.54C330.84 530.2 327.7 532.45 325.04 535.29C322.38 538.12 320.26 541.48 318.71 545.37C317.15 549.25 316.38 553.41 316.38 557.85V558.18C316.38 567.62 319.35 575.4 325.28 581.51C331.23 587.62 338.81 590.68 348.03 590.68C352.03 590.68 355.55 590.27 358.6 589.44C361.66 588.6 364.35 587.4 366.68 585.85V571.69H343.86V548.03H397.33V600.35C391.22 605.46 383.91 609.76 375.42 613.27C366.92 616.76 357.35 618.51 346.69 618.51L346.71 618.49Z" fill="white"/>
<path d="M474.82 618.49C465.82 618.49 457.43 616.99 449.65 614C441.88 611 435.19 606.86 429.58 601.59C423.97 596.31 419.56 589.95 416.33 582.5C413.11 575.06 411.51 566.95 411.51 558.17V557.84C411.51 549.41 413.09 541.47 416.24 534.02C419.4 526.58 423.76 520.17 429.31 514.78C434.87 509.4 441.48 505.12 449.15 501.95C456.81 498.79 465.14 497.2 474.14 497.2C484.35 497.2 493.26 498.67 500.87 501.62C508.48 504.57 515.33 508.7 521.45 514.03L502.45 537.02C498.35 533.58 494.07 530.88 489.62 528.94C485.18 527 480.07 526.03 474.3 526.03C470.08 526.03 466.17 526.87 462.56 528.54C458.95 530.2 455.81 532.45 453.15 535.29C450.49 538.12 448.37 541.48 446.82 545.37C445.26 549.25 444.49 553.41 444.49 557.85V558.18C444.49 567.62 447.46 575.4 453.39 581.51C459.34 587.62 466.92 590.68 476.14 590.68C480.14 590.68 483.66 590.27 486.71 589.44C489.77 588.6 492.46 587.4 494.79 585.85V571.69H471.97V548.03H525.44V600.35C519.33 605.46 512.02 609.76 503.53 613.27C495.03 616.76 485.46 618.51 474.8 618.51L474.82 618.49Z" fill="white"/>
</svg>
